<svg xmlns="http://www.w3.org/2000/svg" viewBox="0 0 56.45 33.12"><defs><style>.cls-1{fill:#901311;}</style></defs><title>virtuclass_logoAsset 2</title><g id="Layer_2" data-name="Layer 2"><g id="Layer_1-2" data-name="Layer 1"><path class="cls-1" d="M.12.28,11.68,27.6S14,33,19.81,32.93a8.91,8.91,0,0,0,8-4.59l7-16.07S36.45,7,43.09,6.69a8.28,8.28,0,0,1,7.65,5.08l.2.42,5.51-3.11L54.62,5.94S50.51,0,43.17,0A15.07,15.07,0,0,0,31.86,5L30.29,7,29,9.44,23.37,23.57s-2.94,6.63-6.72,0S7,.11,7,.11H0Z"/><path class="cls-1" d="M34.52,19.93l-3.07,7a12,12,0,0,0,9.4,6.16l13.8,0,0-6.55-13.28-.06S36.73,26.18,34.52,19.93Z"/></g></g></svg>